<?xml version="1.0" encoding="utf-8"?>

<!-- Uploaded to: SVG Repo, www.svgrepo.com, Generator: SVG Repo Mixer Tools -->
<svg fill="#000000" height="800px" width="800px" version="1.1" id="Icons" xmlns="http://www.w3.org/2000/svg" xmlns:xlink="http://www.w3.org/1999/xlink" 
	 viewBox="0 0 32 32" xml:space="preserve">
<g>
	<path d="M7,20h1v5c0,0.6,0.4,1,1,1s1-0.4,1-1v-5h1c0.6,0,1-0.4,1-1v-3c0-0.6-0.4-1-1-1h-1v-2c0-0.6-0.4-1-1-1s-1,0.4-1,1v2H7
		c-0.6,0-1,0.4-1,1v3C6,19.6,6.4,20,7,20z"/>
	<path d="M14,17h1v8c0,0.6,0.4,1,1,1s1-0.4,1-1v-8h1c0.6,0,1-0.4,1-1v-3c0-0.6-0.4-1-1-1h-4c-0.6,0-1,0.4-1,1v3
		C13,16.6,13.4,17,14,17z"/>
	<path d="M23,18c1.7,0,3-1.3,3-3s-1.3-3-3-3s-3,1.3-3,3S21.3,18,23,18z"/>
	<path d="M23,26c1.7,0,3-1.3,3-3s-1.3-3-3-3s-3,1.3-3,3S21.3,26,23,26z"/>
	<path d="M29,2H3C2.4,2,2,2.4,2,3v6v20c0,0.6,0.4,1,1,1h26c0.6,0,1-0.4,1-1V9V3C30,2.4,29.6,2,29,2z M19,5h6c0.6,0,1,0.4,1,1
		s-0.4,1-1,1h-6c-0.6,0-1-0.4-1-1S18.4,5,19,5z M15.1,5.6c0.1-0.1,0.1-0.2,0.2-0.3c0.4-0.4,1-0.4,1.4,0c0.1,0.1,0.2,0.2,0.2,0.3
		C17,5.7,17,5.9,17,6c0,0.3-0.1,0.5-0.3,0.7c-0.1,0-0.1,0.1-0.1,0.1c-0.1,0-0.1,0.1-0.2,0.1c-0.1,0-0.1,0-0.2,0.1
		c-0.1,0-0.1,0-0.2,0c-0.3,0-0.5-0.1-0.7-0.3C15.1,6.5,15,6.3,15,6C15,5.9,15,5.7,15.1,5.6z M12.3,5.3c0.1-0.1,0.2-0.2,0.3-0.2
		C13,4.9,13.4,5,13.7,5.3C13.9,5.5,14,5.7,14,6c0,0.1,0,0.3-0.1,0.4c-0.1,0.1-0.1,0.2-0.2,0.3C13.5,6.9,13.3,7,13,7
		c-0.1,0-0.3,0-0.4-0.1c-0.1-0.1-0.2-0.1-0.3-0.2c-0.1-0.1-0.2-0.2-0.2-0.3C12,6.3,12,6.1,12,6C12,5.7,12.1,5.5,12.3,5.3z M9.3,5.3
		c0.4-0.4,1-0.4,1.4,0C10.9,5.5,11,5.7,11,6c0,0.1,0,0.3-0.1,0.4c-0.1,0.1-0.1,0.2-0.2,0.3c-0.1,0.1-0.2,0.2-0.3,0.2
		C10.3,7,10.1,7,10,7C9.7,7,9.5,6.9,9.3,6.7C9.1,6.5,9,6.3,9,6C9,5.7,9.1,5.5,9.3,5.3z M6.3,5.3c0.4-0.4,1-0.4,1.4,0
		C7.9,5.5,8,5.7,8,6c0,0.1,0,0.3-0.1,0.4C7.9,6.5,7.8,6.6,7.7,6.7C7.5,6.9,7.3,7,7,7C6.7,7,6.5,6.9,6.3,6.7C6.1,6.5,6,6.3,6,6
		C6,5.7,6.1,5.5,6.3,5.3z M28,28H4V10h24V28z"/>
</g>
</svg>